<svg width="24" height="24" viewBox="0 0 24 24" fill="none" xmlns="http://www.w3.org/2000/svg">
<path d="M13.4104 12.0002L19.7104 5.71019C19.8987 5.52188 20.0045 5.26649 20.0045 5.00019C20.0045 4.73388 19.8987 4.47849 19.7104 4.29019C19.5221 4.10188 19.2667 3.99609 19.0004 3.99609C18.7341 3.99609 18.4787 4.10188 18.2904 4.29019L12.0004 10.5902L5.71043 4.29019C5.52212 4.10188 5.26673 3.99609 5.00043 3.99609C4.73413 3.99609 4.47873 4.10188 4.29043 4.29019C4.10212 4.47849 3.99634 4.73388 3.99634 5.00019C3.99634 5.26649 4.10212 5.52188 4.29043 5.71019L10.5904 12.0002L4.29043 18.2902C4.1967 18.3831 4.1223 18.4937 4.07154 18.6156C4.02077 18.7375 3.99463 18.8682 3.99463 19.0002C3.99463 19.1322 4.02077 19.2629 4.07154 19.3848C4.1223 19.5066 4.1967 19.6172 4.29043 19.7102C4.38339 19.8039 4.49399 19.8783 4.61585 19.9291C4.73771 19.9798 4.86842 20.006 5.00043 20.006C5.13244 20.006 5.26314 19.9798 5.385 19.9291C5.50686 19.8783 5.61746 19.8039 5.71043 19.7102L12.0004 13.4102L18.2904 19.7102C18.3834 19.8039 18.494 19.8783 18.6159 19.9291C18.7377 19.9798 18.8684 20.006 19.0004 20.006C19.1324 20.006 19.2631 19.9798 19.385 19.9291C19.5069 19.8783 19.6175 19.8039 19.7104 19.7102C19.8042 19.6172 19.8786 19.5066 19.9293 19.3848C19.9801 19.2629 20.0062 19.1322 20.0062 19.0002C20.0062 18.8682 19.9801 18.7375 19.9293 18.6156C19.8786 18.4937 19.8042 18.3831 19.7104 18.2902L13.4104 12.0002Z" fill="#2C2C2C"/>
</svg>
